<mxfile host="app.diagrams.net" modified="2023-10-09T21:55:16.705Z" agent="Mozilla/5.0 (Windows NT 10.0; Win64; x64) AppleWebKit/537.36 (KHTML, like Gecko) Chrome/117.0.0.0 Safari/537.36" version="22.0.4" etag="U_OZOYISxbon-j9W8tP4" type="github">
  <diagram name="Page-1" id="0aEVds6fk29q_f6Hjw83">
    <mxGraphModel>
      <root>
        <mxCell id="0" />
        <mxCell id="1" parent="0" />
      </root>
    </mxGraphModel>
  </diagram>
</mxfile>
